<svg width="128" height="60" viewBox="0 0 128 60" fill="none" xmlns="http://www.w3.org/2000/svg">
<path d="M47.8907 18.6004H51.1607L47.6707 32.2204C47.6707 32.3304 47.5607 32.5404 47.5607 32.7504C47.3507 34.2304 47.6707 35.3904 48.7207 36.3404C49.7807 37.1804 51.2507 37.6104 53.2607 37.6104H54.1007L54.8407 34.7604C53.6807 34.5504 53.2607 33.9204 53.3607 32.6504C53.3607 32.5774 53.3977 32.5074 53.4707 32.4404C53.5437 32.3734 53.5807 32.3034 53.5807 32.2304L57.7007 15.6504H42.8107L39.1107 30.4404C38.7907 31.6004 38.0507 32.6604 37.0007 33.5004C35.9407 34.3404 34.7807 34.7704 33.5107 34.7704L38.2607 15.7604H32.3507L31.7207 18.6104L26.9707 37.7304H32.7807C35.6307 37.7304 38.2707 36.6704 40.8107 34.5604C43.3407 32.4504 44.9307 30.0204 45.6707 27.1704L47.8907 18.6204V18.6004Z" fill="black"/>
<path d="M55.9196 11.7303C56.7596 11.7303 57.4996 11.4103 58.1396 10.8903C58.7696 10.2603 59.1996 9.62031 59.2996 8.78031C59.3996 7.94031 59.2996 7.30031 58.7696 6.67031C58.2396 6.14031 57.6096 5.82031 56.8696 5.82031C56.0296 5.82031 55.2896 6.14031 54.6496 6.66031C54.0096 7.18031 53.5896 7.93031 53.4896 8.77031C53.3896 9.61031 53.4896 10.3503 54.0196 10.8803C54.4396 11.4103 55.0796 11.7203 55.9196 11.7203V11.7303Z" fill="black"/>
<path d="M57.5001 32.12C57.1801 33.7 57.7101 35.08 58.8701 36.13C60.0301 37.18 61.6201 37.71 63.6201 37.71H64.5701C66.2601 37.71 67.8401 37.08 69.3201 35.91C70.0601 37.07 71.4301 37.71 73.4401 37.71H75.4501L76.1901 34.86C75.0301 34.75 74.6101 34.23 74.8201 33.28C74.8201 33.207 74.8571 33.137 74.9301 33.07V32.86L79.1501 15.75H69.1201C67.0101 15.75 65.1101 16.38 63.3101 17.55C61.5101 18.61 60.4601 20.08 60.0401 21.88L57.6101 31.6C57.5001 31.71 57.5001 31.92 57.5001 32.13V32.12ZM63.2001 32.33C63.2001 32.33 63.2001 32.22 63.3101 32.12C63.3101 32.01 63.4201 31.91 63.4201 31.91L66.1701 20.82C66.5901 19.34 67.3301 18.71 68.6001 18.71H72.7201L69.4501 31.6C69.2401 32.44 68.7101 33.29 67.8701 33.92C67.0301 34.55 66.1801 34.87 65.3401 34.87C63.6501 34.76 62.9101 33.92 63.2301 32.34L63.2001 32.33Z" fill="black"/>
<path d="M108.62 21.2404C108.83 19.6604 108.41 18.2804 107.25 17.2304C106.09 16.1704 104.5 15.6504 102.5 15.6504H101.55C99.4398 15.6504 97.4298 16.2804 95.7398 17.4504C93.9398 18.6104 92.8898 20.0904 92.4698 21.7804L90.0398 31.5004C90.0398 31.6104 89.9298 31.8204 89.9298 32.0304C89.6098 33.7204 90.1398 34.9904 91.2998 36.0404C92.4598 37.1004 94.1498 37.6204 96.0498 37.6204H96.8898C98.9998 37.6204 100.9 36.9904 102.7 35.8204C104.5 34.6604 105.55 33.1804 105.97 31.4904L108.4 21.7704L108.61 21.2404H108.62ZM102.81 21.3504L102.7 21.7704L100.27 31.4904C100.06 32.5504 99.6398 33.2904 98.9998 33.9204C98.3698 34.4504 97.8398 34.7604 97.1998 34.7604C96.6698 34.7604 96.1398 34.5504 95.8298 34.0204C95.5198 33.4904 95.4098 32.8604 95.6198 32.0104C95.6198 31.9374 95.6568 31.8674 95.7298 31.8004C95.7298 31.6904 95.7298 31.5904 95.8398 31.5904L98.2698 21.8704C98.4798 20.9204 98.8998 20.1804 99.4298 19.5504C99.9598 18.9204 100.59 18.7104 101.33 18.7104C101.86 18.7104 102.39 18.9204 102.6 19.4504C102.92 19.8704 102.92 20.5104 102.81 21.3504Z" fill="black"/>
<path d="M125.099 15.75C122.779 15.75 120.769 16.38 119.079 17.65L119.499 15.75H113.689L108.199 37.72H114.009L116.969 25.68C117.389 24.2 118.129 22.83 119.189 21.56C120.349 20.29 121.619 19.34 122.989 18.92L122.249 21.77H125.419L126.999 15.75H125.099Z" fill="black"/>
<path d="M23.92 33.3903L29.2 12.4803C29.2 12.3703 29.2 12.2703 29.31 12.1603C29.31 11.9503 29.42 11.8403 29.42 11.8403C29.74 10.0403 29.21 8.57031 27.94 7.51031C26.57 6.45031 24.88 5.82031 22.55 5.82031C20.22 5.82031 17.9 6.45031 16.11 7.62031C14.21 8.89031 13.05 10.4703 12.52 12.4803L10.09 21.9903H4.7C2.59 21.9903 1 23.6803 1 25.7903H9.13L6.07 37.6203H11.77L14.73 25.7903H20.01L18.11 33.1803C18 33.2903 18 33.5003 18 33.7103C17.79 34.9803 18 35.9303 18.74 36.5603C19.48 37.3003 20.54 37.6203 21.91 37.6203H24.23L24.97 34.7703C24.13 34.7703 23.81 34.2403 23.91 33.4003L23.92 33.3903ZM23.6 11.3203L23.49 11.7403L20.85 22.0903V22.2003H15.67V22.0903L18.31 11.7403C18.52 10.9003 18.94 10.1603 19.58 9.63031C20.22 9.10031 20.95 8.79031 21.69 8.79031C22.43 8.79031 22.96 9.00031 23.27 9.53031C23.59 9.95031 23.8 10.5903 23.59 11.3303L23.6 11.3203Z" fill="black"/>
<path d="M85.6993 32.4401V32.2301L89.1893 18.5001H91.6193L92.3593 15.6501H89.8293L91.0993 10.5801H85.2893L84.0193 15.6501H81.1693L80.5393 18.6101H83.3893L79.8993 32.3401C79.8993 32.4501 79.8993 32.5501 79.7893 32.6601C79.7893 32.7701 79.6793 32.8701 79.6793 32.9801C79.4693 34.4601 79.6793 35.6201 80.5193 36.4701C81.3593 37.3201 82.5293 37.7401 84.2193 37.7401H86.2293L86.9693 34.7801C85.8093 34.6701 85.2793 34.0401 85.4893 32.7701C85.5993 32.6601 85.5993 32.5601 85.6993 32.4501V32.4401Z" fill="black"/>
<path d="M81.2708 44.79H46.6308C45.7908 44.79 45.0508 45.53 45.0508 46.37C45.0508 47.21 45.7908 47.95 46.6308 47.95H81.2708C82.1108 47.95 82.8508 47.21 82.8508 46.37C82.8508 45.53 82.1108 44.79 81.2708 44.79Z" fill="black"/>
<path d="M74.9309 51.0205H52.9609C52.1209 51.0205 51.3809 51.7605 51.3809 52.6005C51.3809 53.4405 52.1209 54.1805 52.9609 54.1805H75.0309C75.8709 54.1805 76.6109 53.4405 76.6109 52.6005C76.5009 51.6505 75.7709 51.0205 74.9209 51.0205H74.9309Z" fill="black"/>
</svg>
