<svg width="128" height="60" viewBox="0 0 128 60" fill="none" xmlns="http://www.w3.org/2000/svg">
<path d="M1.00774 21.0971C2.79724 25.1379 4.71373 29.4443 13.6381 29.7098C14.8026 27.6754 15.2613 25.313 14.9427 22.9905C11.6293 18.7535 5.59116 17.5643 0.580566 20.1504L1.00774 21.0971ZM67.3346 20.6584H63.6633V39.8234H67.3346V20.6584ZM35.2737 20.924H21.1425V39.8234H35.597V36.7177H24.8254V31.661H31.7871V28.5438H24.8254V24.0181H35.2853V20.924H35.2737Z" fill="#010101"/>
<path d="M38.3332 26.3848H34.5811L39.8917 39.8233H43.2744L48.3313 26.3848H44.6831L41.6351 35.7479L38.3447 26.3848H38.3332Z" fill="#010101"/>
<path fill-rule="evenodd" clip-rule="evenodd" d="M47.7542 33.1272C47.7542 29.0287 50.6982 26.1309 54.8891 26.1309C59.0684 26.1309 62.0009 29.0287 62.0009 33.1272C62.0009 37.168 58.9991 40.0774 54.8082 40.0774C50.6289 40.0774 47.7542 37.2373 47.7542 33.1272ZM58.3064 33.2196V33.1041C58.3064 30.5411 57.0134 29.0056 54.8891 29.0056C52.7532 29.0056 51.4601 30.5411 51.4601 33.1041V33.2196C51.4601 35.7249 52.7301 37.2027 54.8313 37.2027C56.9787 37.2027 58.2949 35.7249 58.2949 33.2196H58.3064Z" fill="#010101"/>
<path d="M69.4243 34.4324V26.3854H73.0726V34.2361C73.0726 36.0371 73.95 37.0877 75.601 37.0877C77.5059 37.0877 78.3025 35.5291 78.3025 33.2201V26.3854H81.9508V39.8239H78.3025V37.919C77.5636 39.3044 76.3052 40.0779 74.5157 40.0779C71.3639 40.0779 69.4359 37.919 69.4359 34.4439L69.4243 34.4324ZM85.2758 29.237V36.268C85.3335 38.4847 85.9223 39.6854 88.6008 39.8239H91.4178V36.8915H89.8015C89.1203 36.8684 88.7971 36.5797 88.7971 35.9217V29.2255H91.5679V26.3854H88.8317V21.9174L85.2758 23.857V26.3854H83.3131V29.237H85.2758ZM93.2881 26.3854H96.948V39.8239H93.2881V26.3854ZM93.2189 20.9707H97.0057V24.4227H93.2189V20.9707Z" fill="#010101"/>
<path fill-rule="evenodd" clip-rule="evenodd" d="M105.757 26.1191C101.543 26.1191 98.5989 29.0285 98.5989 33.127C98.5989 37.2371 101.485 40.0772 105.665 40.0772C109.867 40.0772 112.857 37.1794 112.857 33.127C112.857 29.0285 109.925 26.1306 105.745 26.1306L105.757 26.1191ZM109.151 33.104V33.2193C109.151 35.7246 107.835 37.2024 105.688 37.2024C103.575 37.2024 102.305 35.7246 102.305 33.2193V33.104C102.305 30.5409 103.598 29.0054 105.745 29.0054C107.858 29.0054 109.151 30.5409 109.151 33.104Z" fill="#010101"/>
<path d="M114.485 26.3846H118.133V28.5782C118.475 27.8028 119.044 27.1498 119.766 26.7064C120.489 26.2629 121.328 26.05 122.174 26.096C125.211 26.096 127 28.0587 127 31.7647V39.8232H123.363V31.9725C123.363 30.0906 122.624 29.1208 120.916 29.1208C119.184 29.1208 118.133 30.4831 118.133 32.9884V39.8232H114.485V26.3846Z" fill="#010101"/>
<path fill-rule="evenodd" clip-rule="evenodd" d="M14.5501 41.2096C14.5501 40.4477 15.1851 39.8242 15.9702 39.8242C16.7552 39.8242 17.3902 40.4477 17.3902 41.2096C17.3902 41.9601 16.7552 42.5835 15.9702 42.5835C15.1851 42.5835 14.5386 41.9601 14.5386 41.1981L14.5501 41.2096ZM14.8272 41.2096C14.8272 41.81 15.3352 42.3064 15.9702 42.3064C16.5936 42.3064 17.1016 41.81 17.1016 41.2096C17.1001 41.0627 17.0696 40.9173 17.0119 40.782C16.9543 40.6467 16.8705 40.5241 16.7654 40.4212C16.6603 40.3182 16.536 40.2371 16.3995 40.1821C16.2631 40.1273 16.1171 40.0998 15.9702 40.1013C15.822 40.0983 15.675 40.1246 15.5371 40.1788C15.3994 40.233 15.2737 40.314 15.1674 40.4171C15.0611 40.5202 14.9763 40.6432 14.9179 40.7794C14.8595 40.9153 14.8287 41.0616 14.8272 41.2096Z" fill="#010101"/>
<path d="M13.6381 29.7095C14.7696 29.7441 16.0164 29.7095 17.3903 29.6171C17.2574 27.2128 16.4047 24.9037 14.9427 22.9902C15.2594 25.3125 14.8008 27.6744 13.6381 29.7095ZM3.76703 35.3551C7.69238 35.3551 11.1559 33.4155 13.1648 30.4715C14.4347 30.4138 15.8202 30.4369 17.3903 30.5523C16.6976 39.8231 7.61156 43.6676 0.580566 40.0193L1.00774 39.0611C1.57345 37.8027 2.13916 36.5211 2.94732 35.332C4.64446 32.7921 7.36911 30.7486 13.1648 30.4715C12.1128 31.9876 10.7072 33.2245 9.06982 34.0754C7.43238 34.9263 5.61232 35.3655 3.76703 35.3551Z" fill="#010101"/>
</svg>
