<svg width="128" height="60" viewBox="0 0 128 60" fill="none" xmlns="http://www.w3.org/2000/svg">
<path d="M125.65 10.0698C124.91 10.3198 124.47 10.4698 124.35 10.5198C124.23 10.5698 124.1 10.7098 123.96 10.9098C123.69 11.2698 123.55 11.8398 123.55 12.6298V46.4398C123.55 47.2298 123.68 47.7998 123.96 48.1598C124.09 48.3598 124.22 48.4898 124.35 48.5498C124.47 48.5998 124.91 48.7598 125.65 48.9998C126.55 49.2898 127 49.8998 127 50.8198C127 51.3798 126.78 51.8198 126.34 52.1198C125.9 52.4298 125.28 52.5698 124.47 52.5698H107.65C106.84 52.5698 106.21 52.4198 105.78 52.1198C105.34 51.8198 105.12 51.3798 105.12 50.8198C105.12 49.8998 105.57 49.2898 106.47 48.9998C107.21 48.7498 107.65 48.5998 107.77 48.5498C107.89 48.4998 108.02 48.3598 108.16 48.1598C108.43 47.7998 108.57 47.2298 108.57 46.4398V12.6398C108.57 11.8498 108.44 11.2798 108.16 10.9198C108.03 10.7198 107.89 10.5898 107.77 10.5298C107.65 10.4798 107.21 10.3198 106.47 10.0798C105.57 9.78977 105.12 9.17977 105.12 8.25977C105.12 7.69977 105.34 7.25977 105.78 6.95977C106.22 6.65977 106.84 6.50977 107.65 6.50977H124.47C125.28 6.50977 125.9 6.65977 126.34 6.95977C126.78 7.26977 127 7.69977 127 8.25977C127 9.17977 126.55 9.78977 125.65 10.0798V10.0698Z" fill="black"/>
<path d="M89.27 10.1798C88.39 10.3798 87.87 10.5198 87.71 10.5898C87.55 10.6598 87.38 10.7898 87.21 10.9998C86.87 11.4098 86.7 12.0398 86.7 12.8898V52.6098H70.79C69.98 52.6098 69.35 52.4598 68.92 52.1598C68.48 51.8598 68.26 51.4198 68.26 50.8598C68.26 49.9398 68.71 49.3298 69.61 49.0398C70.35 48.7898 70.79 48.6398 70.91 48.5898C71.03 48.5398 71.16 48.3998 71.3 48.1998C71.57 47.8398 71.71 47.2698 71.71 46.4798V12.6398C71.71 11.8498 71.57 11.2798 71.3 10.9198C71.17 10.7198 71.03 10.5898 70.91 10.5298C70.79 10.4798 70.35 10.3198 69.61 10.0798C68.71 9.78977 68.26 9.17977 68.26 8.25977C68.26 7.69977 68.48 7.25977 68.92 6.95977C69.36 6.65977 69.98 6.50977 70.79 6.50977H87.88C88.87 6.50977 89.58 6.63977 90.01 6.91977C90.59 7.27977 90.89 7.74977 90.89 8.33977C90.89 9.32977 90.35 9.94977 89.27 10.1998V10.1798Z" fill="black"/>
<path d="M89.44 52.5998V48.8198C90.54 48.6198 91.42 48.3998 92.06 48.1398C92.7 47.8898 93.31 47.5298 93.9 47.0598C94.84 46.3198 95.71 45.2898 96.5 43.9898C97.29 42.6898 97.93 41.2298 98.43 39.6298C98.79 38.3898 99.12 37.5698 99.43 37.1798C99.74 36.7898 100.18 36.5898 100.76 36.5898C101.39 36.5898 101.85 36.8498 102.14 37.3698C102.27 37.6198 102.34 38.1098 102.34 38.8598V52.5998H89.44Z" fill="black"/>
<path d="M61.38 10.0698C60.64 10.3198 60.2 10.4698 60.08 10.5198C59.96 10.5698 59.83 10.7098 59.69 10.9098C59.42 11.2698 59.28 11.8398 59.28 12.6298V46.4398C59.28 47.2298 59.41 47.7998 59.69 48.1598C59.82 48.3598 59.95 48.4898 60.08 48.5498C60.2 48.5998 60.64 48.7598 61.38 48.9998C62.28 49.2898 62.73 49.8998 62.73 50.8198C62.73 51.3798 62.51 51.8198 62.07 52.1198C61.63 52.4298 61.01 52.5698 60.2 52.5698H43.38C42.57 52.5698 41.95 52.4198 41.51 52.1198C41.07 51.8198 40.85 51.3798 40.85 50.8198C40.85 49.8998 41.3 49.2898 42.2 48.9998C42.94 48.7498 43.38 48.5998 43.5 48.5498C43.62 48.4998 43.75 48.3598 43.89 48.1598C44.16 47.7998 44.3 47.2298 44.3 46.4398V12.6398C44.3 11.8498 44.17 11.2798 43.89 10.9198C43.76 10.7198 43.62 10.5898 43.5 10.5298C43.38 10.4798 42.94 10.3198 42.2 10.0798C41.3 9.78977 40.85 9.17977 40.85 8.25977C40.85 7.69977 41.07 7.25977 41.51 6.95977C41.95 6.64977 42.57 6.50977 43.38 6.50977H60.2C61.01 6.50977 61.64 6.65977 62.07 6.95977C62.51 7.26977 62.73 7.69977 62.73 8.25977C62.73 9.17977 62.28 9.78977 61.38 10.0798V10.0698Z" fill="black"/>
<path d="M13.44 45.74C12.79 46.57 11.84 47.26 10.6 47.8C10.19 48 9.98 48.16 9.96 48.27C9.94 48.38 10.03 48.52 10.25 48.69C10.46 48.86 10.73 49.01 11.05 49.14C11.39 49.27 11.89 49.41 12.57 49.55V53.27C9.75 52.82 7.51 52.04 5.82 50.94C4.29 49.93 3.1 48.68 2.26 47.21C1.42 45.73 1 44.15 1 42.46C1 40.41 1.7 38.66 3.11 37.19C4.52 35.73 6.2 35 8.16 35C10.12 35 11.62 35.66 12.94 36.98C14.25 38.29 14.92 39.88 14.92 41.73C14.92 43.16 14.43 44.5 13.46 45.74H13.44Z" fill="black"/>
<path d="M34.9 10.07L33.82 10.41C33.14 10.64 32.81 11.38 32.81 12.64V40.88C32.81 45 31.46 48.14 28.76 50.3C27.48 51.31 25.85 52.11 23.86 52.68C21.88 53.25 19.78 53.54 17.58 53.54C17.2 53.54 16.54 53.52 15.62 53.47V49.55C15.78 49.44 15.89 49.36 15.96 49.31C16.41 48.97 16.73 48.7 16.92 48.48C17.11 48.26 17.28 48 17.41 47.68C17.68 46.94 17.82 45.99 17.82 44.84V12.91C17.82 11.51 17.41 10.73 16.6 10.54L15.28 10.2C14.2 9.92996 13.66 9.30996 13.66 8.33996C13.66 7.72996 13.91 7.27996 14.42 6.96996C14.92 6.65996 15.67 6.51996 16.66 6.51996L17.78 6.48996H32.81L33.72 6.45996L34.94 6.58996C35.82 6.83996 36.26 7.38996 36.26 8.24996C36.26 9.10996 35.81 9.75996 34.91 10.07H34.9Z" fill="black"/>
<path d="M125.65 10.0698C124.91 10.3198 124.47 10.4698 124.35 10.5198C124.23 10.5698 124.1 10.7098 123.96 10.9098C123.69 11.2698 123.55 11.8398 123.55 12.6298V46.4398C123.55 47.2298 123.68 47.7998 123.96 48.1598C124.09 48.3598 124.22 48.4898 124.35 48.5498C124.47 48.5998 124.91 48.7598 125.65 48.9998C126.55 49.2898 127 49.8998 127 50.8198C127 51.3798 126.78 51.8198 126.34 52.1198C125.9 52.4298 125.28 52.5698 124.47 52.5698H107.65C106.84 52.5698 106.21 52.4198 105.78 52.1198C105.34 51.8198 105.12 51.3798 105.12 50.8198C105.12 49.8998 105.57 49.2898 106.47 48.9998C107.21 48.7498 107.65 48.5998 107.77 48.5498C107.89 48.4998 108.02 48.3598 108.16 48.1598C108.43 47.7998 108.57 47.2298 108.57 46.4398V12.6398C108.57 11.8498 108.44 11.2798 108.16 10.9198C108.03 10.7198 107.89 10.5898 107.77 10.5298C107.65 10.4798 107.21 10.3198 106.47 10.0798C105.57 9.78977 105.12 9.17977 105.12 8.25977C105.12 7.69977 105.34 7.25977 105.78 6.95977C106.22 6.65977 106.84 6.50977 107.65 6.50977H124.47C125.28 6.50977 125.9 6.65977 126.34 6.95977C126.78 7.26977 127 7.69977 127 8.25977C127 9.17977 126.55 9.78977 125.65 10.0798V10.0698Z" stroke="black" stroke-width="1.36" stroke-miterlimit="10"/>
<path d="M89.27 10.1798C88.39 10.3798 87.87 10.5198 87.71 10.5898C87.55 10.6598 87.38 10.7898 87.21 10.9998C86.87 11.4098 86.7 12.0398 86.7 12.8898V52.6098H70.79C69.98 52.6098 69.35 52.4598 68.92 52.1598C68.48 51.8598 68.26 51.4198 68.26 50.8598C68.26 49.9398 68.71 49.3298 69.61 49.0398C70.35 48.7898 70.79 48.6398 70.91 48.5898C71.03 48.5398 71.16 48.3998 71.3 48.1998C71.57 47.8398 71.71 47.2698 71.71 46.4798V12.6398C71.71 11.8498 71.57 11.2798 71.3 10.9198C71.17 10.7198 71.03 10.5898 70.91 10.5298C70.79 10.4798 70.35 10.3198 69.61 10.0798C68.71 9.78977 68.26 9.17977 68.26 8.25977C68.26 7.69977 68.48 7.25977 68.92 6.95977C69.36 6.65977 69.98 6.50977 70.79 6.50977H87.88C88.87 6.50977 89.58 6.63977 90.01 6.91977C90.59 7.27977 90.89 7.74977 90.89 8.33977C90.89 9.32977 90.35 9.94977 89.27 10.1998V10.1798Z" stroke="black" stroke-width="1.36" stroke-miterlimit="10"/>
<path d="M89.44 52.5998V48.8198C90.54 48.6198 91.42 48.3998 92.06 48.1398C92.7 47.8898 93.31 47.5298 93.9 47.0598C94.84 46.3198 95.71 45.2898 96.5 43.9898C97.29 42.6898 97.93 41.2298 98.43 39.6298C98.79 38.3898 99.12 37.5698 99.43 37.1798C99.74 36.7898 100.18 36.5898 100.76 36.5898C101.39 36.5898 101.85 36.8498 102.14 37.3698C102.27 37.6198 102.34 38.1098 102.34 38.8598V52.5998H89.44Z" stroke="black" stroke-width="1.36" stroke-miterlimit="10"/>
<path d="M61.38 10.0698C60.64 10.3198 60.2 10.4698 60.08 10.5198C59.96 10.5698 59.83 10.7098 59.69 10.9098C59.42 11.2698 59.28 11.8398 59.28 12.6298V46.4398C59.28 47.2298 59.41 47.7998 59.69 48.1598C59.82 48.3598 59.95 48.4898 60.08 48.5498C60.2 48.5998 60.64 48.7598 61.38 48.9998C62.28 49.2898 62.73 49.8998 62.73 50.8198C62.73 51.3798 62.51 51.8198 62.07 52.1198C61.63 52.4298 61.01 52.5698 60.2 52.5698H43.38C42.57 52.5698 41.95 52.4198 41.51 52.1198C41.07 51.8198 40.85 51.3798 40.85 50.8198C40.85 49.8998 41.3 49.2898 42.2 48.9998C42.94 48.7498 43.38 48.5998 43.5 48.5498C43.62 48.4998 43.75 48.3598 43.89 48.1598C44.16 47.7998 44.3 47.2298 44.3 46.4398V12.6398C44.3 11.8498 44.17 11.2798 43.89 10.9198C43.76 10.7198 43.62 10.5898 43.5 10.5298C43.38 10.4798 42.94 10.3198 42.2 10.0798C41.3 9.78977 40.85 9.17977 40.85 8.25977C40.85 7.69977 41.07 7.25977 41.51 6.95977C41.95 6.64977 42.57 6.50977 43.38 6.50977H60.2C61.01 6.50977 61.64 6.65977 62.07 6.95977C62.51 7.26977 62.73 7.69977 62.73 8.25977C62.73 9.17977 62.28 9.78977 61.38 10.0798V10.0698Z" stroke="black" stroke-width="1.36" stroke-miterlimit="10"/>
<path d="M13.44 45.74C12.79 46.57 11.84 47.26 10.6 47.8C10.19 48 9.98 48.16 9.96 48.27C9.94 48.38 10.03 48.52 10.25 48.69C10.46 48.86 10.73 49.01 11.05 49.14C11.39 49.27 11.89 49.41 12.57 49.55V53.27C9.75 52.82 7.51 52.04 5.82 50.94C4.29 49.93 3.1 48.68 2.26 47.21C1.42 45.73 1 44.15 1 42.46C1 40.41 1.7 38.66 3.11 37.19C4.52 35.73 6.2 35 8.16 35C10.12 35 11.62 35.66 12.94 36.98C14.25 38.29 14.92 39.88 14.92 41.73C14.92 43.16 14.43 44.5 13.46 45.74H13.44Z" stroke="black" stroke-width="1.36" stroke-miterlimit="10"/>
<path d="M34.9 10.07L33.82 10.41C33.14 10.64 32.81 11.38 32.81 12.64V40.88C32.81 45 31.46 48.14 28.76 50.3C27.48 51.31 25.85 52.11 23.86 52.68C21.88 53.25 19.78 53.54 17.58 53.54C17.2 53.54 16.54 53.52 15.62 53.47V49.55C15.78 49.44 15.89 49.36 15.96 49.31C16.41 48.97 16.73 48.7 16.92 48.48C17.11 48.26 17.28 48 17.41 47.68C17.68 46.94 17.82 45.99 17.82 44.84V12.91C17.82 11.51 17.41 10.73 16.6 10.54L15.28 10.2C14.2 9.92996 13.66 9.30996 13.66 8.33996C13.66 7.72996 13.91 7.27996 14.42 6.96996C14.92 6.65996 15.67 6.51996 16.66 6.51996L17.78 6.48996H32.81L33.72 6.45996L34.94 6.58996C35.82 6.83996 36.26 7.38996 36.26 8.24996C36.26 9.10996 35.81 9.75996 34.91 10.07H34.9Z" stroke="black" stroke-width="1.36" stroke-miterlimit="10"/>
</svg>
