<svg width="128" height="60" viewBox="0 0 128 60" fill="none" xmlns="http://www.w3.org/2000/svg">
<g clip-path="url(#clip0_48_77)">
<path d="M123.214 21.0152H119.948C119.878 17.6415 118.382 13.3893 111.951 13.1567H81.182C78.5687 13.1937 76.0232 13.9936 73.8587 15.4582C71.8077 16.8458 70.191 18.7767 69.1699 21.0268H9.23211C7.77772 21.0227 6.35651 21.4611 5.15705 22.2837C3.95756 23.1063 3.0366 24.2741 2.51635 25.6323L0.0911659 34.8782C-0.258597 36.767 0.207789 40.5796 4.91815 40.7428H63.4392C63.6391 44.1598 65.4524 48.2564 71.6796 48.6478H100.432C103.751 48.9227 110.693 47.6064 114.219 40.7545H117.233C122.689 40.9643 125.138 37.315 125.686 35.4611L127.843 27.4162C128.799 22.3443 125.161 21.0385 123.214 21.0152ZM15.5631 32.4996C14.7819 32.8844 14.094 32.9893 12.4151 32.9893H10.9694L10.5263 34.3768C10.2931 35.1463 10.0366 35.8109 9.96668 35.8459C9.90837 35.8925 9.29042 35.9275 8.59086 35.9275C7.90297 35.9275 7.28502 35.8925 7.21504 35.8459C7.08682 35.7642 7.30832 35.0531 9.54693 28.1857L10.8644 24.1749H13.8259C16.1344 24.1749 16.9156 24.2098 17.3237 24.3264C17.607 24.4128 17.8689 24.5583 18.0919 24.7533C18.315 24.9482 18.4941 25.1882 18.6179 25.4574L18.5946 25.469C18.6645 25.6323 18.7111 25.9821 18.7111 26.2502C18.7111 26.7865 17.8833 29.7247 17.4869 30.5642C17.0447 31.3805 16.3768 32.0524 15.5631 32.4996ZM17.3353 35.8692C17.1954 35.8226 17.2421 35.6127 17.5685 34.5867L19.4107 28.9435C19.9033 27.4054 20.4164 25.8741 20.9498 24.3498C21.0314 24.1982 21.2062 24.1632 22.2906 24.1632C22.7331 24.1371 23.177 24.1764 23.6081 24.2798C23.6664 24.3847 23.5731 24.7112 22.034 29.7713V29.783C21.5444 31.392 21.1363 32.7795 21.1363 32.8494C21.1363 32.966 21.4511 32.9893 22.5587 32.9893H23.9695L24.8906 30.0978L26.3247 30.0745C27.4323 30.0628 27.7588 30.0745 27.7588 30.1794C27.7588 30.331 26.1032 35.6943 26.0216 35.8342C25.9633 35.9391 17.5918 35.9741 17.3353 35.8692ZM38.4738 28.3139C37.611 31.1705 36.2352 35.566 36.1419 35.7526C36.0603 35.9042 35.8737 35.9275 34.6845 35.9275C33.9266 35.9275 33.3087 35.8925 33.2737 35.8342C33.2154 35.7526 33.7634 33.8288 34.0199 33.1176C34.0665 33.0243 33.7401 32.9893 32.6208 32.9893H31.1517L30.7669 34.3302C30.5337 35.0647 30.2772 35.7293 30.1839 35.7992C29.9857 35.9624 27.4907 35.9858 27.3857 35.8226C27.3274 35.7293 27.9687 33.6306 29.5777 28.7337C30.3122 26.495 30.6737 25.8305 31.5248 25.1892C32.7024 24.2914 33.1921 24.1749 35.6289 24.2098C37.3661 24.2215 37.4944 24.2448 37.9374 24.4896C38.637 24.8861 38.8236 25.2009 38.8702 26.087V26.0986C38.9052 26.7399 38.8469 27.0547 38.4738 28.3139ZM49.83 24.4896C49.83 24.6296 49.7134 25.061 49.5968 25.4341L48.7457 28.2556C48.0578 30.5758 47.7546 31.1821 46.9618 31.8817C46.3792 32.3789 45.682 32.7236 44.933 32.8844C44.6649 32.9194 44.4201 32.9777 44.3967 33.001C44.3851 33.0243 44.1635 33.6656 43.9304 34.4234C43.6972 35.1813 43.4406 35.8226 43.3707 35.8575C43.3007 35.8808 42.6595 35.9158 41.9599 35.9158C40.9222 35.9391 40.6541 35.9158 40.6074 35.7992C40.5841 35.706 40.7473 35.0531 40.9805 34.3535C41.2021 33.6423 41.377 33.0243 41.342 32.9777C41.307 32.931 41.1787 32.8844 41.0388 32.8844C40.1061 32.8844 39.3132 31.9633 39.3132 30.8673C39.3016 30.5176 39.6047 29.4799 40.3043 27.3695C40.8406 25.7255 41.3186 24.3264 41.3536 24.2798C41.4352 24.1399 44.0353 24.1399 44.0353 24.2565C44.0353 24.3147 43.8604 24.9444 43.6505 25.6556L43.1258 27.4278L42.3913 29.8879C42.333 30.0395 42.4846 30.0512 43.8137 30.0279L45.2945 29.9929L47.2299 24.2215H49.8533L49.83 24.4896ZM51.7072 24.9327L51.847 24.5946H55.5431L55.1933 25.7722L54.7269 27.4045L54.6103 27.8476H52.6282C51.5439 27.8476 50.6461 27.8242 50.6461 27.8009C50.6461 27.7543 51.4739 25.539 51.7072 24.9327ZM62.8185 30.3077C62.371 32.1783 61.8341 34.0265 61.2095 35.8459C61.058 35.9624 58.6095 35.9624 58.4579 35.8459C58.3297 35.7759 58.5162 35.1113 59.5189 31.87C59.7171 31.2404 59.892 30.6574 59.892 30.5875C59.892 30.5059 59.449 30.4709 58.423 30.4709H56.9538L56.7906 31.0189L56.0444 33.6656C55.7296 34.8198 55.4032 35.7992 55.3448 35.8459C55.1816 35.9508 52.7332 35.9624 52.5816 35.8459C52.4417 35.7526 53.9341 30.6808 54.2839 30.0395C54.7619 29.1651 55.6247 28.3955 56.5924 27.9991C57.1754 27.7659 57.3269 27.7426 59.2857 27.7426C60.9297 27.7426 61.4427 27.7776 61.7692 27.9058C62.5737 28.2323 63.0167 29.2467 62.8185 30.3077ZM80.739 45.1734L71.2366 45.2667C69.0912 45.0334 65.197 43.1213 66.876 37.4549L71.4348 22.9623C72.1926 20.5721 75.1658 15.7218 80.9954 15.5586H95.2782L92.8647 23.2188H79.1649V23.2305L74.6994 37.4549L81.4152 37.5714L82.5228 34.2602H78.8501L81.2053 26.6H92.2351L89.0288 36.662C88.5041 39.1105 86.044 44.6487 80.739 45.1734ZM102.682 45.22H95.5463C89.7517 44.8936 89.6933 40.0432 90.3929 37.6647L94.5436 24.6412H94.5553C95.0291 21.9321 96.4595 19.4829 98.5864 17.739C100.713 15.9952 103.395 15.0725 106.145 15.1388H111.928C118.049 15.5586 118.014 20.6421 117.221 23.1255L112.604 37.8746C110.249 43.9258 105.014 45.3016 102.682 45.22Z" fill="#010101"/>
<path d="M14.2922 27.0081H12.7765L12.3335 28.4655L11.9021 29.9812C11.9021 30.0162 12.555 30.0511 13.3479 30.0511H14.7936L15.2483 28.652L15.7613 27.1363C15.7963 27.0314 15.4582 27.0081 14.2922 27.0081Z" fill="#010101"/>
<path d="M34.4746 27.0081H33.0055L32.9005 27.2879C32.8423 27.4394 32.749 27.7543 32.6907 27.9991L32.679 27.9874C32.6324 28.2323 32.4692 28.792 32.3292 29.235L32.0728 30.0511L35.0342 30.0045L35.4773 28.6287C35.7338 27.8825 35.9437 27.2063 35.9437 27.1363C35.9437 27.043 35.5822 27.0081 34.4746 27.0081Z" fill="#010101"/>
<path d="M98.4962 37.9795H104.676L109.153 23.7551L102.903 23.8018L98.4962 37.9795Z" fill="#010101"/>
</g>
<defs>
<clipPath id="clip0_48_77">
<rect width="128" height="60" fill="white"/>
</clipPath>
</defs>
</svg>
