<?xml version="1.0" encoding="UTF-8"?>
<svg xmlns="http://www.w3.org/2000/svg" data-name="Layer 1" viewBox="0 0 150 85">
  <path fill="#006838" d="M0 0h150v85H0z"></path>
  <path fill="#fff" d="M52.36 25.43c.58 0 1.08.5 1.08 1.01v22.9c0 .65-.36 1.3-.86 1.73-4.32 3.67-10.94 5.83-17.86 5.83C19.17 56.9 8.8 46.53 8.8 30.98S19.17 5.05 34.72 5.05c5.33 0 10.94 1.58 15.12 4.18.58.29.79.86.65 1.3l-3.6 10.58c-.22.5-.72.72-1.37.58a22.79 22.79 0 0 0-10.37-2.52c-6.62 0-11.09 4.75-11.09 11.81s4.46 11.95 11.09 11.95c2.66 0 4.46-.5 5.26-1.37v-4.18h-6.62c-.65 0-1.08-.29-1.15-.79l-.94-9.94c-.07-.72.36-1.22 1.15-1.22h19.51ZM40.84 40.48v.29-.29ZM97.58 51.5c.22.51-.07 1.01-.65 1.3a29.78 29.78 0 0 1-15.12 4.18c-14.83 0-24.77-10.37-24.77-25.92S66.98 5.14 81.81 5.14c5.33 0 10.94 1.58 15.12 4.18.58.29.86.79.65 1.3l-4.75 10.01c-.29.65-.79.86-1.37.58a15.98 15.98 0 0 0-8.35-2.02c-6.48 0-10.8 4.75-10.8 11.88s4.32 11.88 10.8 11.88c3.1 0 5.69-.5 8.35-2.02.58-.29 1.08-.07 1.37.58l4.75 10.01Zm26.78-45.29c9.43 0 15.7 5.62 15.7 14.04 0 5.18-2.52 9-6.41 10.15 4.54 1.15 7.49 5.47 7.49 11.45 0 8.42-6.26 14.04-15.62 14.04h-22.83c-.57 0-1.01-.5-1.01-1.01V7.29c0-.5.43-1.08 1.01-1.08h21.68Zm-3.31 19.51c2.16 0 3.6-1.3 3.6-3.31s-1.44-3.31-3.6-3.31h-4.54v6.62h4.54ZM122.34 43c2.09 0 3.53-1.37 3.53-3.46s-1.44-3.46-3.53-3.46h-5.83v6.91h5.83ZM34.52 76.79c.05.09 0 .22-.11.31a6.88 6.88 0 0 1-3.33 1.03c-3.26 0-5.42-2.09-5.42-5.22s2.16-5.22 5.42-5.22c1.03 0 2.36.41 3.33 1.03.11.09.16.22.11.31l-1.04 2.2c-.07.14-.2.2-.32.11a3.2 3.2 0 0 0-1.73-.54c-1.31 0-2.18.85-2.18 2.12s.86 2.12 2.18 2.12c.59 0 1.28-.22 1.73-.54.13-.09.25-.04.32.11l1.04 2.2Zm9.36.04c.04.13 0 .2-.13.27a7.03 7.03 0 0 1-3.73 1.01c-3.19 0-5.31-2.09-5.31-5.2s2.09-5.22 5.22-5.22 4.75 1.93 4.75 5.2c0 .27-.02.54-.07.81-.02.14-.11.22-.27.22h-5.78s0 1.13 1.51 1.13a7 7 0 0 0 2.76-.59c.13-.05.23.02.27.14l.77 2.23Zm-2.77-4.81c0-.79-.49-1.31-1.21-1.31-.81 0-1.35.52-1.35 1.31h2.56Zm10.29-4.09c.14 0 .25.11.25.25v2.34c0 .14-.11.25-.25.25h-.47c-.68 0-1.3.31-1.53.76v6.03c0 .14-.13.27-.27.27h-3.17a.28.28 0 0 1-.27-.27V68.2c0-.13.13-.25.27-.25h2.03c.14 0 .23.13.29.27l.27.79a3.05 3.05 0 0 1 2.38-1.08h.47Zm7.13 0c.16 0 .27.11.27.25l-.2 1.75c-.02.14-.13.27-.27.27h-1.15v7.36c0 .14-.13.27-.27.27h-3.17a.28.28 0 0 1-.27-.27V70.2h-1.03a.25.25 0 0 1-.25-.25V68.2c0-.16.13-.27.25-.27h1.03v-1.96c0-.13.13-.23.27-.25l3.17-.31c.14-.02.27.13.27.25v2.27h1.35Zm2.45 10.15c-.95 0-1.58-.59-1.58-1.48s.63-1.51 1.58-1.51 1.58.61 1.58 1.51-.63 1.48-1.58 1.48Zm8.89-1.54c-.29.58-1.15.95-2.16.95-2.63 0-4.38-1.89-4.38-4.74 0-3.19 1.62-5.08 4.38-5.08 1.39 0 2.49.38 2.95 1.03l.32-.5c.11-.16.27-.27.42-.27h1.91c.16 0 .27.11.27.27v8.71c0 2.72-2.47 4.54-5.53 4.54-1.78 0-3.37-.41-4.25-1.13-.11-.09-.14-.22-.11-.31l.92-2.23c.05-.13.16-.18.27-.11a5.15 5.15 0 0 0 3.17 1.01c1.13 0 1.82-.6 1.82-1.62v-.52Zm0-4.68s-.27-.81-1.24-.81c-.9 0-1.42.63-1.42 1.71s.52 1.73 1.42 1.73c.97 0 1.24-.81 1.24-.81v-1.82Zm13.58 4.93c.05.09 0 .22-.11.31a6.88 6.88 0 0 1-3.33 1.03c-3.26 0-5.42-2.09-5.42-5.22s2.16-5.22 5.42-5.22c1.03 0 2.36.41 3.33 1.03.11.09.16.22.11.31l-1.04 2.2c-.07.14-.2.2-.32.11a3.22 3.22 0 0 0-1.73-.54c-1.31 0-2.18.85-2.18 2.12s.86 2.12 2.18 2.12c.59 0 1.28-.22 1.73-.54.13-.09.25-.04.32.11l1.04 2.2Zm4.73-8.43a3.6 3.6 0 0 1 2.2-.68c2.85 0 4.75 2.09 4.75 5.2s-1.91 5.22-4.75 5.22a4.26 4.26 0 0 1-3.04-1.19l-.27.65c-.07.16-.16.27-.29.27h-2.04a.28.28 0 0 1-.27-.27V65.03c0-.13.13-.25.27-.25h3.17c.14 0 .27.13.27.25v3.33Zm0 5.67c.22.59.79.99 1.42.99.99 0 1.66-.86 1.66-2.16s-.67-2.09-1.66-2.09c-.63 0-1.21.4-1.42.99v2.27Zm9.3 4.05c-.95 0-1.58-.59-1.58-1.48s.63-1.51 1.58-1.51 1.58.61 1.58 1.51-.63 1.48-1.58 1.48Zm11.22-1.29c.05.09 0 .22-.11.31a6.88 6.88 0 0 1-3.33 1.03c-3.26 0-5.42-2.09-5.42-5.22s2.16-5.22 5.42-5.22c1.03 0 2.36.41 3.33 1.03.11.09.16.22.11.31l-1.04 2.2c-.07.14-.2.2-.32.11a3.2 3.2 0 0 0-1.73-.54c-1.31 0-2.18.85-2.18 2.12s.86 2.12 2.18 2.12c.6 0 1.28-.22 1.73-.54.13-.09.25-.04.32.11l1.04 2.2Zm15.8-8.86c.14 0 .23.13.18.25l-2.93 9.4c-.04.13-.18.25-.32.25h-2.79c-.14 0-.31-.13-.36-.25l-1.39-4.79-1.39 4.79a.43.43 0 0 1-.36.25h-2.79c-.14 0-.29-.13-.32-.25l-2.93-9.4c-.05-.13.04-.25.18-.25h3.64c.16 0 .31.11.34.25l.94 3.94.97-3.94c.04-.18.2-.25.32-.25h2.81c.27 0 .29.07.32.25l.97 3.94.94-3.94a.36.36 0 0 1 .34-.25h3.64Z"></path>
</svg>
