<?xml version="1.0" encoding="UTF-8"?>
<svg id="Layer_2" data-name="Layer 2" xmlns="http://www.w3.org/2000/svg" viewBox="0 0 629.55 96.01">
  <defs>
    <style>
      .cls-1 {
        fill: #333;
      }

      .cls-2 {
        fill: #f2f2f3;
      }
    </style>
  </defs>
  <g id="Layer_1-2" data-name="Layer 1">
    <g>
      <path class="cls-2" d="M25.6,0h31.87l-18.25,68.09h43.44l-7.35,27.24H0L25.6,0Z"/>
      <path class="cls-2" d="M108.81,0h31.87l-25.6,95.33h-31.87L108.81,0Z"/>
      <path class="cls-2" d="M143.26,0h35l4.09,53.52L215.3,0h35.82l-64.42,96.01h-30.51L143.26,0Z"/>
      <path class="cls-2" d="M245.94,0h35l4.09,53.52L317.98,0h35.82l-64.42,96.01h-30.51L245.94,0Z"/>
      <path class="cls-1" d="M356.65,0h42.22c29.28,0,36.36,10.76,36.36,22.47s-7.76,21.25-22.34,25.06c8.99,2.32,15.53,8.99,15.53,18.79,0,16.07-12.8,29.01-45.49,29.01h-51.89L356.65,0ZM383.88,71.23c7.76,0,12.39-3.4,12.39-8.17,0-4.09-3.41-5.99-10.21-5.99h-13.75l-3.81,14.16h15.39ZM392.33,37.45c8.17,0,11.85-3.68,11.85-7.76s-3-5.58-9.8-5.58h-13.21l-3.54,13.35h14.71Z"/>
      <path class="cls-1" d="M453.6,0h81.31l-7.08,26.15h-49.98l-2.59,9.67h46.58l-6.13,23.02h-46.58l-2.86,10.35h50.66l-6.95,26.15h-81.98L453.6,0Z"/>
      <path class="cls-1" d="M562.41,26.97h-28.06l7.22-26.97h87.98l-7.22,26.97h-28.06l-18.39,68.37h-31.87l18.39-68.37Z"/>
    </g>
  </g>
</svg>